# xmcd
#
# Track frame offsets:
#	150
#	22055
#	41159
#	81900
#	106507
#	144005
#	180488
#	206355
#	244760
#	264028
#	296058
#
# Disc length: 4408 seconds
#
# Revision: 1
# Processed by: cddbd v1.5.2PL0 Copyright (c) Steve Scherf et al.
# Submitted via: audiograbber 1.83.01
#
DISCID=8b11360b
DTITLE=Grateful Dead - 82-09-12 Lakeland Civic Centre Arena, Lakeland FL
DYEAR=1900
DGENRE=
TTITLE0=Alabama Getaway
TTITLE1=Greatest Story Ever Told
TTITLE2=Friend Of The Devil
TTITLE3=Cassidy
TTITLE4=West LA Fadeaway
TTITLE5=Little Red Rooster
TTITLE6=Brown-Eyed Women
TTITLE7=It's All Over Now
TTITLE8=Might As Well
TTITLE9=Men Smart, Women Smarter
TTITLE10=Ship Of Fools
EXTD=
EXTT0=
EXTT1=
EXTT2=
EXTT3=
EXTT4=
EXTT5=
EXTT6=
EXTT7=
EXTT8=
EXTT9=
EXTT10=
PLAYORDER=
